# xmcd
#
# Track frame offsets: 
#        150
#        21196
#        40878
#        60203
#        91440
#        116658
#        120126
#        145745
#        184344
#        211197
#        245908
#
# Disc length: 3510 seconds
#
# Revision: 0
# Processed by: cddbd v1.5.2PL0 Copyright (c) Steve Scherf et al.
# Submitted via: ExactAudioCopy v0.99pb4
#
DISCID=920db40b
DTITLE=Shelley Blakbushe - Blak Girls
DYEAR=2009
DGENRE=Neo-Soul
TTITLE0=Blak Girls
TTITLE1=Give It To Me
TTITLE2=Crazy
TTITLE3=Can't Blame The Tree
TTITLE4=Box
TTITLE5=Band Intro
TTITLE6=Go Head And Rise
TTITLE7=Blak Girls_(Afro Mix)
TTITLE8=Dance (Tea Party Mix)
TTITLE9=Blak Girls (Daz-I-Kue Dub)
TTITLE10=Blak Girls (Original Mix)
EXTD=
EXTT0=
EXTT1=
EXTT2=
EXTT3=
EXTT4=
EXTT5=
EXTT6=
EXTT7=
EXTT8=
EXTT9=
EXTT10=
PLAYORDER=
